<?xml version="1.0" encoding="UTF-8"?>
<svg id="_Слой_2" data-name="Слой 2" xmlns="http://www.w3.org/2000/svg" xmlns:xlink="http://www.w3.org/1999/xlink" viewBox="0 0 791.16 646.41">
  <defs>
    <style>
      .cls-1 {
        fill: #db897b;
      }

      .cls-1, .cls-2, .cls-3, .cls-4, .cls-5, .cls-6, .cls-7, .cls-8, .cls-9 {
        stroke-width: 0px;
      }

      .cls-2 {
        fill: #222323;
      }

      .cls-3 {
        fill: #f9b23d;
      }

      .cls-10 {
        fill: #727272;
      }

      .cls-10, .cls-11, .cls-12, .cls-13, .cls-14, .cls-15, .cls-16, .cls-17 {
        stroke-linecap: round;
        stroke-linejoin: round;
      }

      .cls-10, .cls-11, .cls-12, .cls-13, .cls-14, .cls-16, .cls-17 {
        stroke: #4e2c25;
      }

      .cls-11, .cls-18 {
        fill: #f08b2d;
      }

      .cls-12, .cls-19 {
        fill: #ffd149;
      }

      .cls-20 {
        font-family: Gilroy-Light, Gilroy;
        font-size: 54.41px;
        font-weight: 300;
      }

      .cls-20, .cls-21 {
        fill: #2d1915;
      }

      .cls-13, .cls-22 {
        fill: #e94a46;
      }

      .cls-23 {
        clip-path: url(#clippath-2);
      }

      .cls-4 {
        fill: #f7a838;
      }

      .cls-24 {
        clip-path: url(#clippath-6);
      }

      .cls-5 {
        fill: #9e9e9e;
      }

      .cls-14, .cls-15, .cls-17 {
        fill: none;
      }

      .cls-25 {
        clip-path: url(#clippath-7);
      }

      .cls-6 {
        fill: #9b1b07;
      }

      .cls-26 {
        letter-spacing: -.02em;
      }

      .cls-27 {
        clip-path: url(#clippath-1);
      }

      .cls-28 {
        clip-path: url(#clippath-4);
      }

      .cls-15 {
        stroke: #d03241;
      }

      .cls-16 {
        fill: #8dbf3b;
      }

      .cls-7 {
        fill: #f8fcff;
      }

      .cls-29 {
        clip-path: url(#clippath);
      }

      .cls-8 {
        fill: #bf5d24;
      }

      .cls-30 {
        clip-path: url(#clippath-3);
      }

      .cls-21 {
        font-family: AngelicaC, AngelicaC;
        font-size: 211.77px;
      }

      .cls-17 {
        stroke-width: 3px;
      }

      .cls-31 {
        clip-path: url(#clippath-5);
      }

      .cls-9 {
        fill: #ed695c;
        opacity: .52;
      }
    </style>
    <clipPath id="clippath">
      <path class="cls-11" d="M396.14,368s-16.16,48.29-14.89,48.81c16.23,4.39,33.39,5.35,50.29,2.57-1.62-6.19-4.94-12.07-10-15.99-5.06-3.92-11.96-5.67-18.09-3.82l6.71-33.12-14.03,1.55Z"/>
    </clipPath>
    <clipPath id="clippath-1">
      <path class="cls-11" d="M356.28,367.04s-15.57,33.85-16.15,34.2c-6.76-1.87-15.07-1.66-21.1,1.91-6.03,3.57-10.48,9.67-11.55,16.7,16.92,2.91,36.89,1.68,47.41-1.54l16.42-50.08-15.03-1.19Z"/>
    </clipPath>
    <clipPath id="clippath-2">
      <path class="cls-12" d="M321.47,324.53c-8.01-13.41-7.98-31.23.06-44.62,2.03-3.38,4.55-6.55,5.71-10.31,1.16-3.77.54-8.48-2.72-10.69-2.09-1.42-4.83-1.56-6.97-2.91-4.87-3.09-4.06-10.65-.94-15.51,3.12-4.85,7.9-8.7,9.88-14.11,4.96-13.54-8.25-27.82-6.08-42.07.67-4.38,5.26-13.22-2-17.36-2.24-1.27-4.86-1.68-7.1-2.95-4.01-2.29-5.09-7.7-4.39-12.26.7-4.57,2.71-8.88,3.2-13.47.49-4.59-1.14-9.98-5.43-11.7-3.03-1.21-6.5-.27-9.69-.97-7.06-1.55-9.95-11.14-6.63-17.56,3.32-6.42,10.71-9.76,17.87-10.78,12.63-1.79,25.38,2.18,37.02,7.38,40.3,17.98,73.01,51.25,93.02,90.58,20.01,39.33,27.68,84.39,26.01,131.05-46.36,17.06-98.59,17.65-140.82-1.73Z"/>
    </clipPath>
    <clipPath id="clippath-3">
      <path class="cls-13" d="M347.75,122.35c-3.1,6.81-12.32,10.37-20.16,7.79-8.53-2.81-13.17-7.93-11.55-15.03,1.62-7.09,9.76-10.28,18.79-9.22,8.92,1.04,15.94,9.83,12.92,16.46Z"/>
    </clipPath>
    <clipPath id="clippath-4">
      <path class="cls-13" d="M396.92,157.16c7.06-4.71,17.86-2.79,23.6,4.2,6.26,7.62,7.48,15.19,1.64,21.03-5.84,5.84-15.4,4.18-23.2-2.04-7.71-6.14-8.91-18.61-2.04-23.2Z"/>
    </clipPath>
    <clipPath id="clippath-5">
      <path class="cls-13" d="M338.75,208.41c-1.85-8.49,4.02-18.06,12.83-20.92,9.6-3.12,17.28-1.45,20.66,6.31,3.38,7.75-1.77,16.24-10.62,21.35-8.74,5.05-21.07,1.53-22.87-6.73Z"/>
    </clipPath>
    <clipPath id="clippath-6">
      <path class="cls-13" d="M424.17,324.95c.15-8.48,7.88-16.26,16.91-17,9.82-.8,16.75,2.51,18.22,10.64,1.47,8.13-5.34,15.03-14.9,17.9-9.44,2.83-20.37-3.28-20.23-11.54Z"/>
    </clipPath>
    <clipPath id="clippath-7">
      <path class="cls-11" d="M313.08,320.58c3.24-.57,6.67-.15,9.8,1.3,39.84,18.42,101.79,13.68,139.63-8.44,5.21-3.04,15.72-.6,16.98,13.04,1.46,15.74-7.52,22.57-14.34,25.72-48.02,22.18-104.81,23.28-155.49,8.65-3.83-1.1-7.2-3.5-9.26-6.91-5.38-8.88-2.77-21.51,4.02-28.72"/>
    </clipPath>
  </defs>
  <g id="_Слой_1-2" data-name="Слой 1">
    <text class="cls-20" transform="translate(458.97 633.35)"><tspan x="0" y="0">пиц</tspan><tspan class="cls-26" x="93.96" y="0">ц</tspan><tspan x="125.14" y="0">ерия</tspan></text>
    <text class="cls-21" transform="translate(0 582.8)"><tspan x="0" y="0">Dымок</tspan></text>
    <g>
      <g>
        <path class="cls-11" d="M496.84,323.31s6.98-9.31,4.54-13.03c-2.44-3.72-13.35,4.65-13.35,4.65l8.81,8.38Z"/>
        <path class="cls-11" d="M455.3,288.18s37.94-8.66,41.71,2.49c3.77,11.16-8.94,24.24-8.94,24.24,0,0,2.7,2.35,4.63,5.49,0,0,8.88-7.18,12.92-4.5,4.04,2.67-8.42,22.44-18.47,21.54-10.05-.9-17.62-13.73-16.06-21.59,1.46-7.36,10.77-12.38,9.51-16.21-1.06-3.21-24.88,4.31-24.88,4.31l-.41-15.77Z"/>
        <path class="cls-14" d="M492.53,320.14c.66.97,1.43,3.15,1.29,4.75"/>
      </g>
      <g>
        <path class="cls-18" d="M396.14,368s-16.16,48.29-14.89,48.81c16.23,4.39,33.39,5.35,50.29,2.57-1.62-6.19-4.94-12.07-10-15.99-5.06-3.92-11.96-5.67-18.09-3.82l6.71-33.12-14.03,1.55Z"/>
        <g class="cls-29">
          <path class="cls-8" d="M422.12,370.87c-12.5,5.71-26.12,8.92-39.85,9.39,1.15-8.12,2.3-16.24,3.45-24.36,14.11-1.96,28.12-4.68,41.95-8.13-.58,4.67-1.16,9.35-5.54,23.1Z"/>
        </g>
        <path class="cls-14" d="M396.14,368s-16.16,48.29-14.89,48.81c16.23,4.39,33.39,5.35,50.29,2.57-1.62-6.19-4.94-12.07-10-15.99-5.06-3.92-11.96-5.67-18.09-3.82l6.71-33.12-14.03,1.55Z"/>
      </g>
      <g>
        <path class="cls-18" d="M356.28,367.04s-15.57,33.85-16.15,34.2c-6.76-1.87-15.07-1.66-21.1,1.91-6.03,3.57-10.48,9.67-11.55,16.7,16.92,2.91,36.89,1.68,47.41-1.54l16.42-50.08-15.03-1.19Z"/>
        <g class="cls-27">
          <path class="cls-8" d="M374.53,380.01c-10.01,2.39-20.44,3.01-30.66,1.81,1.47-9.32,2.94-18.65,4.41-27.97,10.49.06,20.98-.93,31.28-2.94-1.29,9.47-2.57,18.94-5.03,29.1Z"/>
        </g>
        <path class="cls-14" d="M356.28,367.04s-15.57,33.85-16.15,34.2c-6.76-1.87-15.07-1.66-21.1,1.91-6.03,3.57-10.48,9.67-11.55,16.7,16.92,2.91,36.89,1.68,47.41-1.54l16.42-50.08-15.03-1.19Z"/>
      </g>
      <path class="cls-11" d="M299.08,334.12c27.51-67.59,26.51-146.16-1.98-214.22,4.49-1.56,8.99-3.11,16.08-4.06,21.57,31.41,31.71,69.54,34.91,107.51,3.2,37.97-.17,76.15-3.54,114.11-13.39-.91-26.62-1.89-45.47-3.34Z"/>
      <g>
        <path class="cls-19" d="M321.47,324.53c-8.01-13.41-7.98-31.23.06-44.62,2.03-3.38,4.55-6.55,5.71-10.31,1.16-3.77.54-8.48-2.72-10.69-2.09-1.42-4.83-1.56-6.97-2.91-4.87-3.09-4.06-10.65-.94-15.51,3.12-4.85,7.9-8.7,9.88-14.11,4.96-13.54-8.25-27.82-6.08-42.07.67-4.38,5.26-13.22-2-17.36-2.24-1.27-4.86-1.68-7.1-2.95-4.01-2.29-5.09-7.7-4.39-12.26.7-4.57,2.71-8.88,3.2-13.47.49-4.59-1.14-9.98-5.43-11.7-3.03-1.21-6.5-.27-9.69-.97-7.06-1.55-9.95-11.14-6.63-17.56,3.32-6.42,10.71-9.76,17.87-10.78,12.63-1.79,25.38,2.18,37.02,7.38,40.3,17.98,73.01,51.25,93.02,90.58,20.01,39.33,27.68,84.39,26.01,131.05-46.36,17.06-98.59,17.65-140.82-1.73Z"/>
        <g class="cls-23">
          <path class="cls-3" d="M311.46,92.99c-7.56,4.92-10.74,15.59-7.1,23.85,2.92,6.62,9.52,11.57,10.63,18.72,1.05,6.82-3.26,14.09-.58,20.45,1.99,4.73,7.26,7.28,9.87,11.69,3.89,6.59.87,14.94,1.35,22.58.8,12.67,11.43,24.44,7.97,36.65-1.75,6.19-7.04,11.61-6.21,17.99.69,5.34,5.55,9.36,6.49,14.65,1.08,6.08-3.18,11.64-5.6,17.32-5.18,12.2-1.59,26.97,6.89,37.16,8.47,10.19,21.11,16.23,34.05,19.12,12.94,2.89,26.32,2.91,40.98,1.9,22.18-5.57,42.58-18.05,57.63-35.26-.38,6.7-.77,13.4-1.15,20.09-48.71,29.36-112.77,31.34-163.2,5.02,1.33-36.95,2.65-74.02-.66-110.84-3.31-36.83-11.4-73.62-28.01-106.65,9.95-8.08,22.64-12.72,36.66-14.45Z"/>
        </g>
        <path class="cls-14" d="M321.47,324.53c-8.01-13.41-7.98-31.23.06-44.62,2.03-3.38,4.55-6.55,5.71-10.31,1.16-3.77.54-8.48-2.72-10.69-2.09-1.42-4.83-1.56-6.97-2.91-4.87-3.09-4.06-10.65-.94-15.51,3.12-4.85,7.9-8.7,9.88-14.11,4.96-13.54-8.25-27.82-6.08-42.07.67-4.38,5.26-13.22-2-17.36-2.24-1.27-4.86-1.68-7.1-2.95-4.01-2.29-5.09-7.7-4.39-12.26.7-4.57,2.71-8.88,3.2-13.47.49-4.59-1.14-9.98-5.43-11.7-3.03-1.21-6.5-.27-9.69-.97-7.06-1.55-9.95-11.14-6.63-17.56,3.32-6.42,10.71-9.76,17.87-10.78,12.63-1.79,25.38,2.18,37.02,7.38,40.3,17.98,73.01,51.25,93.02,90.58,20.01,39.33,27.68,84.39,26.01,131.05-46.36,17.06-98.59,17.65-140.82-1.73Z"/>
      </g>
      <g>
        <path class="cls-3" d="M320.88,109.82c-4.43,1.76-7.11,6.81-6.66,11.55.46,4.75,3.71,8.98,7.93,11.21,4.22,2.23,9.25,2.59,13.93,1.64,4.47-.91,8.86-3.14,11.4-6.94,2.53-3.8,2.73-9.31-.31-12.72-2.13-2.39-5.37-3.4-8.45-4.29-3.08-.9-6.21-1.78-9.42-1.85-3.21-.06-6.6.67-8.42,1.4Z"/>
        <path class="cls-3" d="M335.01,162.42c-.85-.11-1.65.56-1.97,1.35-.32.8-.27,1.69-.19,2.54.08.85.17,1.73-.08,2.55-.8,2.61-4.49,3.33-5.51,5.86-.75,1.86.38,4.12,2.17,5.03,1.79.91,4,.66,5.8-.22,3.26-1.58,5.43-5.17,5.31-8.79-.12-3.62-2.3-7.91-5.52-8.34Z"/>
        <path class="cls-3" d="M365.39,136.13c-3.43.75-5.35,4.61-5.39,8.12-.04,3.51,1.28,6.87,1.98,10.31.71,3.44.68,7.37-1.63,10.02,5.46.06,10.86-2.8,13.88-7.34,3.02-4.55,3.55-10.64,1.37-15.64-1.01-2.31-2.63-4.45-4.9-5.55-2.26-1.1-5.22-.97-5.32.09Z"/>
        <path class="cls-3" d="M397.11,157.75c-5.54,3.66-7.7,11.31-5.77,17.66,1.93,6.35,7.4,11.26,13.64,13.51,5.2,1.87,11.61,1.84,15.63-1.96,4.28-4.04,4.41-11.08,1.88-16.4-4.12-8.67-14.72-13.68-25.39-12.81Z"/>
        <path class="cls-3" d="M345.02,196.02c-6.13,2.05-9.14,9.96-6.71,15.95,2.43,5.99,9.26,9.54,15.7,9.07,6.45-.47,12.3-4.47,16.03-9.75,2.16-3.05,3.72-6.74,3.32-10.45-.65-5.97-6.52-10.47-12.5-10.93-5.99-.46-10.66,4.38-15.83,6.11Z"/>
        <path class="cls-3" d="M387.4,219.29c-4.44,4.36-5.48,11.77-2.42,17.19,6.14.67,12.51-3.02,14.98-8.69s.84-12.84-3.82-16.89c-3.56,3.39-7.11,6.78-8.73,8.38Z"/>
        <path class="cls-3" d="M425.64,208.48c-3.3,2.75-4.26,7.92-2.19,11.68,2.08,3.76,6.97,5.68,11.05,4.36.91-.3,1.8-.76,2.4-1.51.59-.75.82-1.84.38-2.69-.46-.88-1.47-1.28-2.37-1.7-4.51-2.1-8.01-6.26-9.28-10.13Z"/>
        <path class="cls-3" d="M330.64,308.54c-1.27.12-2.57.68-3.29,1.74-.72,1.06-.66,2.67.32,3.49,1.47,1.21,3.76.12,5.55.75,2.64.94,2.9,5.01,5.45,6.18,1.83.84,4.15-.4,4.88-2.27.73-1.87.12-4.07-1.14-5.64-1.25-1.57-3.05-2.61-4.87-3.46-2.16-1-4.54-1.02-6.92-.79Z"/>
      </g>
      <g>
        <g>
          <path class="cls-22" d="M347.75,122.35c-3.1,6.81-12.32,10.37-20.16,7.79-8.53-2.81-13.17-7.93-11.55-15.03,1.62-7.09,9.76-10.28,18.79-9.22,8.92,1.04,15.94,9.83,12.92,16.46Z"/>
          <g class="cls-30">
            <path class="cls-9" d="M320.13,105.49c-2.07,3.41-4.22,7.39-3.02,11.2.94,2.97,3.69,4.96,6.43,6.43,3.89,2.1,8.23,3.61,12.65,3.44,4.42-.18,8.92-2.28,11.18-6.07,2.7-4.53,1.62-10.74-1.94-14.63-3.56-3.89-9.14-5.56-14.39-5.07-5.25.49-9.93,3.06-10.93,4.7Z"/>
          </g>
          <path class="cls-14" d="M347.75,122.35c-3.1,6.81-12.32,10.37-20.16,7.79-8.53-2.81-13.17-7.93-11.55-15.03,1.62-7.09,9.76-10.28,18.79-9.22,8.92,1.04,15.94,9.83,12.92,16.46Z"/>
        </g>
        <g>
          <path class="cls-15" d="M324.5,116.88c2.24-.04,4.46,1.12,5.72,2.98"/>
          <path class="cls-15" d="M334.29,113.69c2.87-.38,5.89.48,8.13,2.31"/>
        </g>
      </g>
      <g>
        <g>
          <path class="cls-22" d="M396.92,157.16c7.06-4.71,17.86-2.79,23.6,4.2,6.26,7.62,7.48,15.19,1.64,21.03-5.84,5.84-15.4,4.18-23.2-2.04-7.71-6.14-8.91-18.61-2.04-23.2Z"/>
          <g class="cls-28">
            <path class="cls-9" d="M401.38,151.7c-2.66,1.97-5.33,4.18-6.61,7.22-1.28,3.05-.68,7.13,2.16,8.82,1,.59,2.19.86,3.09,1.59,1.47,1.2,1.79,3.27,2.5,5.03,2.26,5.58,9.62,8.18,15.15,5.78,5.53-2.4,8.66-8.97,7.67-14.91-.99-5.94-5.67-10.94-11.33-12.98-5.66-2.04-11.88-1.1-12.62-.55Z"/>
          </g>
          <path class="cls-14" d="M396.92,157.16c7.06-4.71,17.86-2.79,23.6,4.2,6.26,7.62,7.48,15.19,1.64,21.03-5.84,5.84-15.4,4.18-23.2-2.04-7.71-6.14-8.91-18.61-2.04-23.2Z"/>
        </g>
        <g>
          <path class="cls-15" d="M418.63,168.5c-3.35-1.38-7.49-.52-10.02,2.07"/>
          <path class="cls-15" d="M406.47,164.52c-1.78-1.1-3.85-1.73-5.94-1.82"/>
          <path class="cls-15" d="M403.98,174.2c2.49.12,4.94.96,6.98,2.39"/>
        </g>
      </g>
      <g>
        <g>
          <path class="cls-22" d="M338.75,208.41c-1.85-8.49,4.02-18.06,12.83-20.92,9.6-3.12,17.28-1.45,20.66,6.31,3.38,7.75-1.77,16.24-10.62,21.35-8.74,5.05-21.07,1.53-22.87-6.73Z"/>
          <g class="cls-31">
            <path class="cls-9" d="M344.68,185.86c-5.86,3.57-9.5,10.51-9.09,17.36.19,3.11,1.2,6.25,3.28,8.57,2.08,2.32,5.33,3.69,8.39,3.09,3-.59,5.44-2.91,8.45-3.47,2.72-.51,5.97.36,7.99-1.55,1.69-1.6,1.53-4.33,2.56-6.42.86-1.74,2.51-2.95,3.65-4.52,2.91-4.02,1.88-10.08-1.65-13.57-3.53-3.49-8.96-4.57-13.84-3.65-4.88.92-9.12,3.78-9.74,4.16Z"/>
          </g>
          <path class="cls-14" d="M338.75,208.41c-1.85-8.49,4.02-18.06,12.83-20.92,9.6-3.12,17.28-1.45,20.66,6.31,3.38,7.75-1.77,16.24-10.62,21.35-8.74,5.05-21.07,1.53-22.87-6.73Z"/>
        </g>
        <g>
          <path class="cls-15" d="M360.81,190.71c-1.94,1.52-3.44,3.59-4.29,5.91"/>
          <path class="cls-15" d="M349.46,198.83c-2.14.31-4.18,1.28-5.77,2.74"/>
          <path class="cls-15" d="M360.76,201.36c-3.23,1.24-5.7,4.29-6.24,7.71"/>
        </g>
      </g>
      <g>
        <g>
          <path class="cls-22" d="M424.17,324.95c.15-8.48,7.88-16.26,16.91-17,9.82-.8,16.75,2.51,18.22,10.64,1.47,8.13-5.34,15.03-14.9,17.9-9.44,2.83-20.37-3.28-20.23-11.54Z"/>
          <g class="cls-24">
            <path class="cls-9" d="M452.76,306.03c3.38,2.88,2.9,8.55.17,12.06-2.73,3.51-7,5.38-11.08,7.11-4.76,2.02-10.26,4.03-14.9,1.75-4.94-2.43-6.6-9.26-4.33-14.28,2.27-5.01,7.54-8.17,12.95-9.18s12.03-1.87,17.2,2.53Z"/>
          </g>
          <path class="cls-14" d="M424.17,324.95c.15-8.48,7.88-16.26,16.91-17,9.82-.8,16.75,2.51,18.22,10.64,1.47,8.13-5.34,15.03-14.9,17.9-9.44,2.83-20.37-3.28-20.23-11.54Z"/>
        </g>
        <g>
          <path class="cls-15" d="M433.78,316.83c2.33-.85,5-.73,7.24.33"/>
          <path class="cls-15" d="M446.16,317.91c1.07-2.05,3.17-3.52,5.46-3.82"/>
        </g>
      </g>
      <g>
        <path class="cls-16" d="M386.38,233.85c-2.4-2.46-3.36-6.23-2.44-9.54.9-3.25,3.37-5.78,5.62-8.29,2.25-2.51,4.46-5.39,4.65-8.75,4.8,3.72,7.03,10.46,5.4,16.31-1.64,5.85-7.04,10.45-13.22,10.28Z"/>
        <path class="cls-14" d="M393.94,218.64c-2.12,7.1-6.19,13.61-11.66,18.61"/>
      </g>
      <g>
        <path class="cls-16" d="M367.42,133.6c-3.1,1.51-5.33,4.65-5.74,8.07-.39,3.24.76,6.45,1.71,9.57s1.69,6.55.54,9.6c4.07-1.25,7.83-3.69,10.29-7.16,2.47-3.47,3.54-7.99,2.49-12.12-1.05-4.12-4.34-7.7-9.29-7.97Z"/>
        <path class="cls-14" d="M369.31,147.54c.4-7.25-1.14-14.6-4.41-21.08"/>
      </g>
      <path class="cls-16" d="M343.09,316.28c1.7-3.05-1.81-7.02-4.94-8.56-3.25-1.6-10.04-1.75-9.95,2.56.02.97.24,1.26,1.17,1.53,2.04.6,4.29-.61,6.2.33,2.22,1.09,2.17,4.47,4.31,5.72.91.53,2.47-.26,3.2-1.57Z"/>
      <path class="cls-16" d="M336.05,160.29c.78-.27,1.66-.15,2.28.39,2.98,2.57,4.17,7.04,2.71,10.7-1.35,3.39-4.86,5.79-8.53,6.09-1.2.1-2.3-.7-2.54-1.88h0c-.24-1.18.44-2.37,1.59-2.71,1.89-.56,3.51-2.06,4.03-3.93.46-1.66.02-3.48-1.01-4.85-.94-1.24-.48-3.03.96-3.62.16-.07.33-.13.51-.19Z"/>
      <path class="cls-16" d="M436.35,220.64c-.29.77-.95,1.37-1.76,1.5-3.88.64-8.08-1.31-9.95-4.78-1.73-3.21-1.33-7.45.79-10.46.7-.99,2.01-1.32,3.07-.74h0c1.06.57,1.54,1.86,1.06,2.96-.78,1.81-.67,4.01.43,5.61.98,1.42,2.65,2.25,4.37,2.33,1.55.07,2.63,1.58,2.16,3.05-.05.17-.11.34-.18.52Z"/>
      <g>
        <path class="cls-18" d="M313.08,320.58c3.24-.57,6.67-.15,9.8,1.3,39.84,18.42,101.79,13.68,139.63-8.44,5.21-3.04,15.72-.6,16.98,13.04,1.46,15.74-7.52,22.57-14.34,25.72-48.02,22.18-104.81,23.28-155.49,8.65-3.83-1.1-7.2-3.5-9.26-6.91-5.38-8.88-2.77-21.51,4.02-28.72"/>
        <g class="cls-25">
          <path class="cls-4" d="M320.35,318.16c5.25,3.1,9.43,7.97,11.71,13.62,1.64,4.05,2.29,8.49,1.79,13.77-.37,3.97,2.39,7.55,6.3,8.36,30.91,6.41,60.7,5.14,91.76-.56,11.9-2.18,27.97-7.12,37.71-14.29,9.74-7.17,10.72-26.74,3.33-39.33-53.87-10.82-99.55,8.03-152.61,18.43Z"/>
        </g>
        <path class="cls-14" d="M313.08,320.58c3.24-.57,6.67-.15,9.8,1.3,39.84,18.42,101.79,13.68,139.63-8.44,5.21-3.04,15.72-.6,16.98,13.04,1.46,15.74-7.52,22.57-14.34,25.72-48.02,22.18-104.81,23.28-155.49,8.65-3.83-1.1-7.2-3.5-9.26-6.91-5.38-8.88-2.77-21.51,4.02-28.72"/>
      </g>
      <g>
        <path class="cls-4" d="M320.79,332.64c-1.97-2.3-5.36-3.15-8.29-2.36s-5.35,3.04-6.68,5.76c-1.33,2.72-1.65,5.87-1.26,8.88.32,2.54,1.28,5.22,3.45,6.57,1.54.96,3.52,1.1,5.26.59,1.75-.5,3.28-1.6,4.54-2.91,4.08-4.28,6.76-12.1,2.98-16.53Z"/>
        <path class="cls-14" d="M310.32,327.64c3.51-1.49,7.82.33,9.96,3.49,2.14,3.16,2.41,7.28,1.65,11.02-.59,2.91-1.81,5.76-3.9,7.86-2.1,2.1-5.15,3.36-8.08,2.85-2.92-.51-5.52-3.01-5.7-5.97"/>
      </g>
      <g>
        <path class="cls-11" d="M312.11,297.56c-4.45,1.68-10.41,3.59-15.87,4.77-8.17,1.78-16.74-.13-23.32-5.3-1.6-1.25-3.01-2.56-4.04-3.83-3.71,4.02-7.41,8.03-11.45,13.2,5.02,3.89,10.59,7.07,16.56,9.54,5.08,2.1,10.63,2.74,16.05,1.83,6.43-1.08,12.12-2.8,19.15-5.01"/>
        <g>
          <path class="cls-11" d="M271.6,298.22c2.05-5.54,1-11.65-2.76-16.93-.79-3.94-.47-8.09.91-11.87.65-1.79,1.56-3.66,1.11-5.51-.61-2.51-3.68-3.83-6.18-3.2-2.5.63-4.4,2.72-5.62,4.99-2.2,4.13-2.56,9.19-2.75,14.44-5.54-1.75-14.02-2.7-17.61,1.47-1.9,2.21-1.53,6.45,1,8.98-.12,3.31-.24,6.86.33,10.12.57,3.26,1.87,6.48,4.24,8.8,2.69,2.63,6.51,3.86,10.26,4.11,1.87.12,4.08.03,5.73-.73"/>
          <path class="cls-14" d="M255.34,279.85c2.53.61,7.63,3.58,5.43,7.72-.87,1.64-2.8,2.37-4.6,2.82-4.24,1.08-8.68,1.37-13.03.86"/>
          <path class="cls-14" d="M260.72,289.94s.02.04.03.06c1.45,3.11-.06,6.93-3.06,8.14-3.98,1.61-8.35,2.34-12.65,2.07"/>
          <path class="cls-14" d="M260.84,297.34s.02.03.03.04c2,2.71.61,6.45-2.75,7.67-2.48.9-5.23,1.36-7.97,1.28"/>
          <path class="cls-14" d="M260.21,304.4c4.05,1.07,4.1,7.11.05,8.5-4.48,1.54-8.36.14-9.13.22"/>
        </g>
      </g>
      <path class="cls-17" d="M341.85,234.17c2.23-3.31,5.92-5.6,9.88-6.11,3.96-.51,8.11.75,11.11,3.39"/>
      <path class="cls-17" d="M419.45,231.81c2.39-2.56,6.03-3.9,9.51-3.5,3.48.4,6.72,2.54,8.46,5.58"/>
      <g>
        <circle class="cls-7" cx="355.45" cy="254.37" r="17.11"/>
        <circle class="cls-2" cx="355.45" cy="254.37" r="9.89"/>
        <circle class="cls-7" cx="425.94" cy="254.37" r="17.11"/>
        <circle class="cls-2" cx="425.94" cy="254.37" r="9.89"/>
        <path class="cls-1" d="M408.68,294.25c-1.98.38-4.61-1.18-6.38-1.9-1.3-.52-5.39-2.96-5.18-1.3-.86-6.75-8.21-10.79-13.71-5.68-4.17,3.87-8.92,7.06-14.22,9.18-4.01,1.6-6.87,5.37-5.61,9.88.49,1.74,1.74,3.39,3.34,4.52.55.65,1.21,1.26,1.97,1.84.98.74,2.08,1.35,3.24,1.89,1.72,1.84,3.18,3.9,5.91,4.93,4,1.51,8.74,1.36,12.94.88,1.81-.2,3.57-.5,5.28-.89,2.51.24,5.05.28,7.84-.18,3.4-.57,5.18-2.68,5.66-5.17,2.31-1.34,4.54-2.87,6.71-4.58,6.91-5.46-.84-14.75-7.81-13.42Z"/>
        <g>
          <path class="cls-10" d="M392.78,270.81c.75-1.41,3.11-5.43,7.87-7.87,5.84-3,11.85-2.32,15.96-.83,8.57,3.11,9.2,5.28,19.48,9.12,2.03.76,9.07,3.26,18.44,3.73,7.13.36,14.32.72,20.31-3.94,1.3-1.01,4.58-3.56,5.8-7.87,2.09-7.39-3.55-14.05-2.49-14.71.93-.58,6.26,3.87,8.5,10.57,2.53,7.59-.13,14.43-.83,16.16-1.02,2.53-3.48,7.39-12.23,13.68-11.38,8.18-23.02,11.3-30.05,12.64-10.92,2.08-24.82,4.74-38.13-2.49-3.56-1.93-13.33-7.24-14.71-16.79-.83-5.78,1.74-10.78,2.07-11.4Z"/>
          <path class="cls-10" d="M351.75,268.63c3.18-1.68,5.05-3.02,8.91-4.14,3.14-.91,10.44-3.04,17.92.41,1.82.84,6.49,3,9.01,8.19,3.09,6.34.77,12.64.31,13.88-3.23,8.78-12.39,12.56-17.82,14.71-19.58,7.75-43.9,3.96-61.55-8.7-6.98-5.01-15.88-11.4-16.68-22.07-.83-11.09,8.94-20.92,9.12-20.83.1.06-2.82,3.48-3,8.6-.22,6.12,3.61,10.69,4.04,11.19,4.69,5.43,11.85,5.86,17.72,6.22,15.66.95,29.5-6.13,32.02-7.46Z"/>
        </g>
        <path class="cls-6" d="M414.32,309.37c-.32-1.17-1.31-1.82-2.41-1.91-3.03-2.37-6.98-4.01-10.81-2.67-3.03,1.06-4.88,3.49-6.96,5.73-1.65-2.51-4.42-4.29-7.38-4.73-2.96-.44-5.6.57-8.31,1.47-.76.16-1.5.39-2.24.68-.05.01-.11.03-.16.05,0,0,0,.01,0,.02-.22.09-.43.16-.65.25-.55.24-.91.6-1.12,1.02-3.2.37-3.15,5.46.22,5.32.64-.03,1.28-.08,1.92-.13.31.44.77.82,1.4,1.03,3.31,1.14,6.8,1.95,10.3,2.28.72.77,1.64,1.34,2.64,1.66,2.37.77,5.08.32,7.39-.45,2.42-.81,4.78-1.93,7.09-3,1.95-.9,3.85-1.9,5.65-3.07.52-.07,1.03-.14,1.54-.24,1.42-.27,2.23-1.98,1.87-3.29Z"/>
        <path class="cls-14" d="M361.81,305.01c2.52,2.92,6.34,6.57,11.69,9.39,2.99,1.58,16.15,8.63,30.47,2.61,9.32-3.92,13.45-9.81,15.51-13.29"/>
        <path class="cls-14" d="M369.94,312.27c.49-1.23,3.91-4.26,9.1-6.5.76-.33,5.27-2.27,9.12-.52.77.35,2.05.93,3.14,2.23,1.12,1.34,1.09,2.3,1.73,2.43,1.27.27,1.85-3.31,4.66-5.08,2.72-1.71,6.18-.87,9.74,0,1.83.45,4.56,1.33,7.56,3.21"/>
      </g>
      <path class="cls-5" d="M301.92.06c-1.49,2.28-2.93,4.49-4.39,6.69-1.49,2.25-2.98,4.5-3.88,7.07-1.95,5.53-2.31,11.06.1,16.55,1.29,2.93,3.48,5.05,6.11,6.8,4.96,3.31,9.72,6.89,13.6,11.49,2.24,2.65,4.03,5.56,4.93,8.96.92,3.49.49,6.88-.73,10.21-2.24,6.1-5.94,11.3-10.17,16.16-.1.11-.23.19-.48.37-.07-.37-.14-.63-.17-.9-.44-3.33-.78-6.67-1.33-9.98-.62-3.74-2.4-6.98-4.77-9.89-2.59-3.18-5.28-6.28-7.8-9.52-3.68-4.74-6.83-9.82-8.74-15.56-3.98-11.98-1.4-22.41,7.53-31.28,2.83-2.81,6.03-5.15,9.55-7.05.12-.06.23-.13.35-.18.04-.02.1.02.28.05Z"/>
      <path class="cls-5" d="M284.27,90.58c-.18-1.44-.4-2.87-.53-4.31-.46-5.22-2.5-9.71-6.01-13.61-3.51-3.9-6.74-8.03-9.24-12.67-2.38-4.43-3.9-9.08-3.74-14.18.17-5.26,2.32-9.72,5.7-13.64,2.6-3.01,5.66-5.48,9.12-7.44.11-.06.23-.11.51-.24-.13.29-.17.45-.26.57-1.55,2.31-3.15,4.58-4.64,6.93-2.18,3.45-3.22,7.24-2.95,11.33.29,4.26,2.08,7.71,5.7,10.12,3.29,2.18,6.48,4.49,9.3,7.28,1.91,1.89,3.58,3.97,4.8,6.38,1.9,3.77,1.8,7.6.24,11.44-1.83,4.49-4.6,8.38-7.78,11.99-.03.03-.1.02-.23.05Z"/>
    </g>
  </g>
</svg>