<?xml version="1.0" encoding="UTF-8"?>
<svg id="_Слой_2" data-name="Слой 2" xmlns="http://www.w3.org/2000/svg" xmlns:xlink="http://www.w3.org/1999/xlink" viewBox="0 0 394.16 616.77">
  <defs>
    <style>
      .cls-1 {
        fill: #db897b;
      }

      .cls-1, .cls-2, .cls-3, .cls-4, .cls-5, .cls-6, .cls-7, .cls-8, .cls-9 {
        stroke-width: 0px;
      }

      .cls-2 {
        fill: #222323;
      }

      .cls-3 {
        fill: #f9b23d;
      }

      .cls-10 {
        fill: #727272;
      }

      .cls-10, .cls-11, .cls-12, .cls-13, .cls-14, .cls-15, .cls-16, .cls-17 {
        stroke-linecap: round;
        stroke-linejoin: round;
      }

      .cls-10, .cls-11, .cls-12, .cls-13, .cls-14, .cls-16, .cls-17 {
        stroke: #4e2c25;
      }

      .cls-11, .cls-18 {
        fill: #f08b2d;
      }

      .cls-12, .cls-19 {
        fill: #ffd149;
      }

      .cls-13, .cls-20 {
        fill: #e94a46;
      }

      .cls-21 {
        clip-path: url(#clippath-2);
      }

      .cls-4 {
        fill: #f7a838;
      }

      .cls-22 {
        clip-path: url(#clippath-6);
      }

      .cls-5 {
        fill: #9e9e9e;
      }

      .cls-14, .cls-15, .cls-17 {
        fill: none;
      }

      .cls-23 {
        clip-path: url(#clippath-7);
      }

      .cls-6 {
        fill: #9b1b07;
      }

      .cls-24 {
        clip-path: url(#clippath-1);
      }

      .cls-25 {
        clip-path: url(#clippath-4);
      }

      .cls-15 {
        stroke: #d03241;
      }

      .cls-16 {
        fill: #8dbf3b;
      }

      .cls-7 {
        fill: #f8fcff;
      }

      .cls-26 {
        clip-path: url(#clippath);
      }

      .cls-8 {
        fill: #bf5d24;
      }

      .cls-27 {
        clip-path: url(#clippath-3);
      }

      .cls-17 {
        stroke-width: 3px;
      }

      .cls-28 {
        clip-path: url(#clippath-5);
      }

      .cls-9 {
        fill: #ed695c;
        opacity: .52;
      }
    </style>
    <clipPath id="clippath">
      <path class="cls-11" d="M232.44,538.06s-23.63,70.6-21.77,71.37c23.73,6.42,48.81,7.82,73.54,3.76-2.36-9.06-7.22-17.65-14.62-23.38-7.4-5.73-17.48-8.28-26.45-5.58l9.81-48.43-20.51,2.27Z"/>
    </clipPath>
    <clipPath id="clippath-1">
      <path class="cls-11" d="M174.17,536.65s-22.77,49.5-23.62,50c-9.88-2.73-22.03-2.43-30.84,2.79-8.81,5.23-15.32,14.14-16.89,24.42,24.74,4.25,53.93,2.45,69.32-2.25l24-73.22-21.98-1.74Z"/>
    </clipPath>
    <clipPath id="clippath-2">
      <path class="cls-12" d="M123.27,474.49c-11.71-19.61-11.67-45.66.08-65.24,2.97-4.94,6.65-9.57,8.35-15.08,1.69-5.51.78-12.4-3.98-15.64-3.05-2.08-7.07-2.28-10.18-4.26-7.12-4.52-5.93-15.58-1.38-22.67,4.56-7.1,11.54-12.72,14.44-20.64,7.25-19.79-12.06-40.67-8.89-61.51.98-6.41,7.69-19.33-2.92-25.38-3.27-1.86-7.11-2.46-10.38-4.32-5.87-3.34-7.44-11.25-6.42-17.93,1.02-6.68,3.96-12.98,4.68-19.7.72-6.72-1.67-14.59-7.94-17.11-4.43-1.77-9.5-.4-14.16-1.42-10.33-2.26-14.55-16.29-9.69-25.68,4.86-9.39,15.66-14.27,26.13-15.76,18.46-2.62,37.1,3.19,54.13,10.79,58.92,26.28,106.75,74.94,136.01,132.44,29.26,57.5,40.46,123.38,38.02,191.61-67.78,24.94-144.15,25.81-205.89-2.53Z"/>
    </clipPath>
    <clipPath id="clippath-3">
      <path class="cls-13" d="M161.68,178.89c-4.54,9.95-18.02,15.17-29.47,11.39-12.46-4.11-19.26-11.6-16.89-21.97,2.37-10.37,14.27-15.02,27.47-13.49,13.04,1.52,23.31,14.38,18.89,24.07Z"/>
    </clipPath>
    <clipPath id="clippath-4">
      <path class="cls-13" d="M233.58,229.78c10.32-6.89,26.11-4.08,34.51,6.15,9.15,11.13,10.93,22.21,2.39,30.75-8.54,8.54-22.51,6.11-33.92-2.98-11.27-8.98-13.03-27.21-2.98-33.92Z"/>
    </clipPath>
    <clipPath id="clippath-5">
      <path class="cls-13" d="M148.53,304.71c-2.71-12.41,5.87-26.41,18.76-30.59,14.03-4.56,25.26-2.12,30.21,9.22,4.95,11.34-2.59,23.74-15.53,31.21-12.78,7.38-30.81,2.24-33.44-9.84Z"/>
    </clipPath>
    <clipPath id="clippath-6">
      <path class="cls-13" d="M273.43,475.1c.22-12.4,11.53-23.78,24.72-24.85,14.36-1.17,24.48,3.67,26.63,15.56,2.15,11.89-7.81,21.98-21.78,26.17-13.8,4.14-29.79-4.8-29.57-16.88Z"/>
    </clipPath>
    <clipPath id="clippath-7">
      <path class="cls-11" d="M111,468.72c4.74-.83,9.76-.22,14.33,1.89,58.24,26.94,148.82,20,204.16-12.35,7.61-4.45,22.98-.88,24.83,19.07,2.13,23.01-11,33-20.96,37.6-70.21,32.42-153.24,34.03-227.35,12.65-5.6-1.61-10.53-5.12-13.54-10.1-7.86-12.98-4.05-31.45,5.88-41.99"/>
    </clipPath>
  </defs>
  <g id="_Слой_1-2" data-name="Слой 1">
    <g>
      <g>
        <path class="cls-11" d="M379.67,472.71s10.2-13.61,6.64-19.05c-3.57-5.44-19.52,6.79-19.52,6.79l12.88,12.26Z"/>
        <path class="cls-11" d="M318.94,421.34s55.47-12.67,60.98,3.64c5.51,16.31-13.08,35.45-13.08,35.45,0,0,3.95,3.44,6.78,8.03,0,0,12.99-10.49,18.9-6.59,5.91,3.91-12.31,32.81-27.01,31.49-14.69-1.32-25.77-20.07-23.48-31.56,2.14-10.76,15.74-18.1,13.9-23.69-1.54-4.7-36.38,6.29-36.38,6.29l-.6-23.06Z"/>
        <path class="cls-14" d="M373.37,468.07c.96,1.42,2.08,4.61,1.89,6.94"/>
      </g>
      <g>
        <path class="cls-18" d="M232.44,538.06s-23.63,70.6-21.77,71.37c23.73,6.42,48.81,7.82,73.54,3.76-2.36-9.06-7.22-17.65-14.62-23.38-7.4-5.73-17.48-8.28-26.45-5.58l9.81-48.43-20.51,2.27Z"/>
        <g class="cls-26">
          <path class="cls-8" d="M270.43,542.25c-18.27,8.34-38.2,13.04-58.27,13.73,1.68-11.87,3.36-23.75,5.04-35.62,20.63-2.87,41.12-6.84,61.33-11.88-.85,6.83-1.7,13.67-8.1,33.78Z"/>
        </g>
        <path class="cls-14" d="M232.44,538.06s-23.63,70.6-21.77,71.37c23.73,6.42,48.81,7.82,73.54,3.76-2.36-9.06-7.22-17.65-14.62-23.38-7.4-5.73-17.48-8.28-26.45-5.58l9.81-48.43-20.51,2.27Z"/>
      </g>
      <g>
        <path class="cls-18" d="M174.17,536.65s-22.77,49.5-23.62,50c-9.88-2.73-22.03-2.43-30.84,2.79-8.81,5.23-15.32,14.14-16.89,24.42,24.74,4.25,53.93,2.45,69.32-2.25l24-73.22-21.98-1.74Z"/>
        <g class="cls-24">
          <path class="cls-8" d="M200.84,555.61c-14.64,3.5-29.89,4.4-44.83,2.64,2.15-13.63,4.3-27.26,6.45-40.89,15.34.09,30.68-1.35,45.73-4.3-1.88,13.85-3.76,27.69-7.35,42.55Z"/>
        </g>
        <path class="cls-14" d="M174.17,536.65s-22.77,49.5-23.62,50c-9.88-2.73-22.03-2.43-30.84,2.79-8.81,5.23-15.32,14.14-16.89,24.42,24.74,4.25,53.93,2.45,69.32-2.25l24-73.22-21.98-1.74Z"/>
      </g>
      <path class="cls-11" d="M90.54,488.52c40.22-98.83,38.75-213.69-2.89-313.2,6.57-2.27,13.14-4.55,23.51-5.94,31.53,45.93,46.36,101.67,51.04,157.19,4.68,55.52-.25,111.34-5.17,166.84-19.58-1.34-38.93-2.76-66.48-4.89Z"/>
      <g>
        <path class="cls-19" d="M123.27,474.49c-11.71-19.61-11.67-45.66.08-65.24,2.97-4.94,6.65-9.57,8.35-15.08,1.69-5.51.78-12.4-3.98-15.64-3.05-2.08-7.07-2.28-10.18-4.26-7.12-4.52-5.93-15.58-1.38-22.67,4.56-7.1,11.54-12.72,14.44-20.64,7.25-19.79-12.06-40.67-8.89-61.51.98-6.41,7.69-19.33-2.92-25.38-3.27-1.86-7.11-2.46-10.38-4.32-5.87-3.34-7.44-11.25-6.42-17.93,1.02-6.68,3.96-12.98,4.68-19.7.72-6.72-1.67-14.59-7.94-17.11-4.43-1.77-9.5-.4-14.16-1.42-10.33-2.26-14.55-16.29-9.69-25.68,4.86-9.39,15.66-14.27,26.13-15.76,18.46-2.62,37.1,3.19,54.13,10.79,58.92,26.28,106.75,74.94,136.01,132.44,29.26,57.5,40.46,123.38,38.02,191.61-67.78,24.94-144.15,25.81-205.89-2.53Z"/>
        <g class="cls-21">
          <path class="cls-3" d="M108.63,135.96c-11.06,7.2-15.7,22.8-10.38,34.87,4.27,9.68,13.93,16.91,15.54,27.37,1.54,9.97-4.77,20.6-.85,29.89,2.92,6.91,10.61,10.64,14.42,17.1,5.69,9.63,1.28,21.85,1.98,33.01,1.16,18.52,16.71,35.73,11.66,53.59-2.56,9.04-10.29,16.98-9.08,26.3,1.01,7.8,8.11,13.68,9.48,21.43,1.58,8.89-4.65,17.01-8.18,25.32-7.58,17.84-2.32,39.44,10.07,54.34,12.39,14.9,30.86,23.72,49.78,27.95,18.91,4.22,38.48,4.26,59.91,2.78,32.43-8.14,62.25-26.39,84.26-51.56-.56,9.79-1.12,19.59-1.68,29.38-71.22,42.93-164.89,45.82-238.61,7.35,1.94-54.03,3.87-108.22-.96-162.06-4.84-53.84-16.66-107.63-40.95-155.93,14.55-11.82,33.11-18.6,53.59-21.12Z"/>
        </g>
        <path class="cls-14" d="M123.27,474.49c-11.71-19.61-11.67-45.66.08-65.24,2.97-4.94,6.65-9.57,8.35-15.08,1.69-5.51.78-12.4-3.98-15.64-3.05-2.08-7.07-2.28-10.18-4.26-7.12-4.52-5.93-15.58-1.38-22.67,4.56-7.1,11.54-12.72,14.44-20.64,7.25-19.79-12.06-40.67-8.89-61.51.98-6.41,7.69-19.33-2.92-25.38-3.27-1.86-7.11-2.46-10.38-4.32-5.87-3.34-7.44-11.25-6.42-17.93,1.02-6.68,3.96-12.98,4.68-19.7.72-6.72-1.67-14.59-7.94-17.11-4.43-1.77-9.5-.4-14.16-1.42-10.33-2.26-14.55-16.29-9.69-25.68,4.86-9.39,15.66-14.27,26.13-15.76,18.46-2.62,37.1,3.19,54.13,10.79,58.92,26.28,106.75,74.94,136.01,132.44,29.26,57.5,40.46,123.38,38.02,191.61-67.78,24.94-144.15,25.81-205.89-2.53Z"/>
      </g>
      <g>
        <path class="cls-3" d="M122.41,160.57c-6.48,2.57-10.4,9.95-9.73,16.89.67,6.94,5.43,13.13,11.59,16.39,6.16,3.26,13.53,3.79,20.36,2.4,6.54-1.33,12.96-4.59,16.66-10.15,3.7-5.55,3.99-13.61-.45-18.59-3.12-3.5-7.85-4.97-12.35-6.28-4.51-1.31-9.08-2.61-13.77-2.7-4.69-.09-9.65.99-12.31,2.04Z"/>
        <path class="cls-3" d="M143.06,237.47c-1.24-.16-2.41.82-2.88,1.98-.47,1.16-.39,2.47-.28,3.72.11,1.25.24,2.54-.12,3.73-1.16,3.82-6.57,4.86-8.06,8.56-1.1,2.72.56,6.03,3.17,7.36,2.61,1.33,5.84.96,8.48-.32,4.76-2.3,7.94-7.56,7.76-12.85-.18-5.29-3.36-11.57-8.08-12.19Z"/>
        <path class="cls-3" d="M187.49,199.03c-5.01,1.09-7.82,6.74-7.88,11.87-.06,5.13,1.87,10.05,2.9,15.07,1.03,5.03.99,10.78-2.38,14.65,7.98.09,15.88-4.09,20.29-10.74,4.41-6.65,5.19-15.56,2-22.87-1.47-3.38-3.85-6.5-7.16-8.12-3.31-1.61-7.64-1.42-7.78.13Z"/>
        <path class="cls-3" d="M233.87,230.65c-8.1,5.35-11.26,16.53-8.43,25.81,2.83,9.28,10.82,16.47,19.95,19.76,7.61,2.74,16.97,2.68,22.86-2.86,6.26-5.9,6.45-16.21,2.75-23.98-6.02-12.67-21.53-20-37.12-18.73Z"/>
        <path class="cls-3" d="M157.71,286.6c-8.96,3-13.37,14.56-9.81,23.31,3.55,8.75,13.53,13.95,22.96,13.26,9.42-.69,17.99-6.53,23.44-14.25,3.15-4.46,5.44-9.85,4.85-15.28-.95-8.73-9.53-15.31-18.28-15.98-8.76-.67-15.59,6.41-23.15,8.94Z"/>
        <path class="cls-3" d="M219.67,320.63c-6.48,6.38-8.01,17.21-3.54,25.14,8.98.98,18.29-4.42,21.9-12.7,3.61-8.28,1.23-18.77-5.59-24.69-5.2,4.95-10.39,9.92-12.76,12.25Z"/>
        <path class="cls-3" d="M275.58,304.81c-4.82,4.02-6.23,11.58-3.2,17.07,3.04,5.49,10.19,8.31,16.16,6.37,1.33-.43,2.64-1.11,3.5-2.21.87-1.1,1.21-2.69.56-3.93-.67-1.28-2.15-1.88-3.46-2.49-6.59-3.07-11.71-9.15-13.56-14.81Z"/>
        <path class="cls-3" d="M136.68,451.11c-1.86.18-3.76.99-4.8,2.54-1.05,1.55-.97,3.91.47,5.1,2.14,1.77,5.49.17,8.11,1.1,3.87,1.38,4.24,7.32,7.97,9.03,2.67,1.22,6.07-.58,7.14-3.31s.17-5.95-1.66-8.25c-1.83-2.3-4.46-3.82-7.12-5.05-3.15-1.46-6.64-1.49-10.11-1.15Z"/>
      </g>
      <g>
        <g>
          <path class="cls-20" d="M161.68,178.89c-4.54,9.95-18.02,15.17-29.47,11.39-12.46-4.11-19.26-11.6-16.89-21.97,2.37-10.37,14.27-15.02,27.47-13.49,13.04,1.52,23.31,14.38,18.89,24.07Z"/>
          <g class="cls-27">
            <path class="cls-9" d="M121.31,154.23c-3.03,4.99-6.17,10.81-4.41,16.37,1.37,4.34,5.4,7.25,9.41,9.4,5.69,3.06,12.04,5.28,18.5,5.02,6.46-.26,13.04-3.33,16.35-8.88,3.95-6.62,2.37-15.7-2.83-21.39-5.2-5.69-13.36-8.12-21.04-7.41-7.67.72-14.52,4.47-15.98,6.87Z"/>
          </g>
          <path class="cls-14" d="M161.68,178.89c-4.54,9.95-18.02,15.17-29.47,11.39-12.46-4.11-19.26-11.6-16.89-21.97,2.37-10.37,14.27-15.02,27.47-13.49,13.04,1.52,23.31,14.38,18.89,24.07Z"/>
        </g>
        <g>
          <path class="cls-15" d="M127.7,170.89c3.27-.05,6.53,1.64,8.36,4.35"/>
          <path class="cls-15" d="M142.02,166.23c4.2-.56,8.61.7,11.89,3.38"/>
        </g>
      </g>
      <g>
        <g>
          <path class="cls-20" d="M233.58,229.78c10.32-6.89,26.11-4.08,34.51,6.15,9.15,11.13,10.93,22.21,2.39,30.75-8.54,8.54-22.51,6.11-33.92-2.98-11.27-8.98-13.03-27.21-2.98-33.92Z"/>
          <g class="cls-25">
            <path class="cls-9" d="M240.11,221.8c-3.88,2.88-7.79,6.11-9.67,10.56-1.88,4.45-1,10.43,3.16,12.9,1.46.87,3.2,1.25,4.52,2.32,2.16,1.75,2.62,4.78,3.66,7.35,3.31,8.16,14.07,11.96,22.15,8.46,8.08-3.5,12.67-13.12,11.22-21.8-1.45-8.69-8.29-15.99-16.57-18.98-8.28-2.99-17.36-1.61-18.45-.8Z"/>
          </g>
          <path class="cls-14" d="M233.58,229.78c10.32-6.89,26.11-4.08,34.51,6.15,9.15,11.13,10.93,22.21,2.39,30.75-8.54,8.54-22.51,6.11-33.92-2.98-11.27-8.98-13.03-27.21-2.98-33.92Z"/>
        </g>
        <g>
          <path class="cls-15" d="M265.33,246.36c-4.89-2.01-10.95-.76-14.65,3.02"/>
          <path class="cls-15" d="M247.54,240.55c-2.61-1.61-5.63-2.54-8.69-2.66"/>
          <path class="cls-15" d="M243.9,254.7c3.64.18,7.22,1.41,10.2,3.5"/>
        </g>
      </g>
      <g>
        <g>
          <path class="cls-20" d="M148.53,304.71c-2.71-12.41,5.87-26.41,18.76-30.59,14.03-4.56,25.26-2.12,30.21,9.22,4.95,11.34-2.59,23.74-15.53,31.21-12.78,7.38-30.81,2.24-33.44-9.84Z"/>
          <g class="cls-28">
            <path class="cls-9" d="M157.21,271.74c-8.57,5.22-13.89,15.37-13.29,25.39.27,4.55,1.75,9.14,4.79,12.52,3.04,3.39,7.79,5.39,12.26,4.51,4.39-.86,7.96-4.25,12.35-5.08,3.98-.75,8.73.52,11.68-2.26,2.48-2.34,2.24-6.33,3.75-9.38,1.26-2.55,3.67-4.31,5.34-6.61,4.26-5.87,2.75-14.73-2.41-19.84-5.16-5.1-13.1-6.69-20.23-5.34-7.13,1.35-13.33,5.53-14.24,6.09Z"/>
          </g>
          <path class="cls-14" d="M148.53,304.71c-2.71-12.41,5.87-26.41,18.76-30.59,14.03-4.56,25.26-2.12,30.21,9.22,4.95,11.34-2.59,23.74-15.53,31.21-12.78,7.38-30.81,2.24-33.44-9.84Z"/>
        </g>
        <g>
          <path class="cls-15" d="M180.78,278.84c-2.83,2.23-5.03,5.26-6.27,8.64"/>
          <path class="cls-15" d="M164.2,290.7c-3.13.46-6.11,1.87-8.44,4.01"/>
          <path class="cls-15" d="M180.71,294.41c-4.73,1.81-8.34,6.27-9.12,11.27"/>
        </g>
      </g>
      <g>
        <g>
          <path class="cls-20" d="M273.43,475.1c.22-12.4,11.53-23.78,24.72-24.85,14.36-1.17,24.48,3.67,26.63,15.56,2.15,11.89-7.81,21.98-21.78,26.17-13.8,4.14-29.79-4.8-29.57-16.88Z"/>
          <g class="cls-22">
            <path class="cls-9" d="M315.23,447.45c4.94,4.21,4.23,12.5.25,17.63-3.98,5.13-10.23,7.86-16.21,10.4-6.95,2.95-15,5.9-21.78,2.56-7.22-3.55-9.65-13.54-6.33-20.87,3.31-7.33,11.02-11.94,18.93-13.42,7.91-1.48,17.59-2.73,25.14,3.7Z"/>
          </g>
          <path class="cls-14" d="M273.43,475.1c.22-12.4,11.53-23.78,24.72-24.85,14.36-1.17,24.48,3.67,26.63,15.56,2.15,11.89-7.81,21.98-21.78,26.17-13.8,4.14-29.79-4.8-29.57-16.88Z"/>
        </g>
        <g>
          <path class="cls-15" d="M287.48,463.23c3.4-1.25,7.31-1.07,10.58.49"/>
          <path class="cls-15" d="M305.58,464.82c1.57-2.99,4.64-5.14,7.99-5.59"/>
        </g>
      </g>
      <g>
        <path class="cls-16" d="M218.17,341.91c-3.51-3.6-4.92-9.11-3.57-13.95,1.32-4.75,4.93-8.45,8.21-12.12,3.29-3.67,6.52-7.88,6.8-12.8,7.02,5.44,10.28,15.29,7.89,23.84-2.39,8.55-10.29,15.28-19.33,15.03Z"/>
        <path class="cls-14" d="M229.23,319.67c-3.09,10.38-9.06,19.9-17.05,27.21"/>
      </g>
      <g>
        <path class="cls-16" d="M190.45,195.33c-4.53,2.2-7.8,6.8-8.4,11.8-.57,4.74,1.11,9.42,2.5,14,1.38,4.57,2.48,9.57.79,14.04,5.95-1.83,11.45-5.4,15.05-10.47,3.61-5.07,5.17-11.69,3.64-17.72-1.54-6.03-6.35-11.25-13.58-11.66Z"/>
        <path class="cls-14" d="M193.21,215.72c.58-10.6-1.67-21.34-6.45-30.81"/>
      </g>
      <path class="cls-16" d="M154.87,462.42c2.48-4.46-2.65-10.26-7.23-12.52-4.75-2.34-14.68-2.56-14.54,3.75.03,1.42.35,1.84,1.72,2.24,2.98.88,6.27-.89,9.06.48,3.25,1.59,3.18,6.53,6.31,8.36,1.32.77,3.61-.37,4.68-2.3Z"/>
      <path class="cls-16" d="M144.58,234.35c1.14-.4,2.43-.22,3.34.57,4.35,3.76,6.1,10.29,3.96,15.64-1.98,4.95-7.11,8.47-12.48,8.91-1.76.14-3.36-1.02-3.71-2.75h0c-.35-1.72.64-3.47,2.33-3.97,2.76-.82,5.13-3.01,5.89-5.75.67-2.42.04-5.09-1.48-7.08-1.37-1.81-.7-4.43,1.4-5.29.24-.1.49-.19.75-.28Z"/>
      <path class="cls-16" d="M291.23,322.59c-.43,1.13-1.39,2-2.58,2.2-5.68.93-11.81-1.91-14.54-6.99-2.53-4.69-1.94-10.89,1.16-15.29,1.02-1.44,2.94-1.92,4.49-1.09h0c1.55.83,2.25,2.71,1.55,4.33-1.14,2.64-.98,5.87.64,8.21,1.43,2.07,3.88,3.29,6.39,3.41,2.27.11,3.85,2.3,3.16,4.47-.08.25-.17.5-.26.76Z"/>
      <g>
        <path class="cls-18" d="M111,468.72c4.74-.83,9.76-.22,14.33,1.89,58.24,26.94,148.82,20,204.16-12.35,7.61-4.45,22.98-.88,24.83,19.07,2.13,23.01-11,33-20.96,37.6-70.21,32.42-153.24,34.03-227.35,12.65-5.6-1.61-10.53-5.12-13.54-10.1-7.86-12.98-4.05-31.45,5.88-41.99"/>
        <g class="cls-23">
          <path class="cls-4" d="M121.63,465.18c7.67,4.54,13.79,11.65,17.12,19.91,2.39,5.92,3.35,12.41,2.62,20.13-.54,5.81,3.49,11.03,9.21,12.22,45.19,9.37,88.74,7.52,134.16-.81,17.39-3.19,40.9-10.41,55.14-20.89,14.24-10.49,15.67-39.09,4.87-57.5-78.76-15.82-145.55,11.74-223.13,26.95Z"/>
        </g>
        <path class="cls-14" d="M111,468.72c4.74-.83,9.76-.22,14.33,1.89,58.24,26.94,148.82,20,204.16-12.35,7.61-4.45,22.98-.88,24.83,19.07,2.13,23.01-11,33-20.96,37.6-70.21,32.42-153.24,34.03-227.35,12.65-5.6-1.61-10.53-5.12-13.54-10.1-7.86-12.98-4.05-31.45,5.88-41.99"/>
      </g>
      <g>
        <path class="cls-4" d="M122.28,486.35c-2.88-3.37-7.84-4.6-12.12-3.45-4.28,1.15-7.82,4.45-9.76,8.43-1.95,3.98-2.41,8.58-1.85,12.98.47,3.71,1.87,7.63,5.05,9.61,2.26,1.41,5.14,1.6,7.7.87,2.55-.74,4.8-2.34,6.64-4.26,5.97-6.25,9.89-17.7,4.36-24.17Z"/>
        <path class="cls-14" d="M106.97,479.04c5.13-2.18,11.44.48,14.57,5.1,3.13,4.62,3.52,10.64,2.41,16.11-.87,4.25-2.64,8.42-5.71,11.5-3.06,3.07-7.54,4.91-11.81,4.17-4.28-.75-8.07-4.4-8.34-8.73"/>
      </g>
      <g>
        <path class="cls-11" d="M109.58,435.06c-6.51,2.46-15.22,5.24-23.2,6.98-11.95,2.6-24.48-.19-34.1-7.75-2.33-1.83-4.41-3.75-5.91-5.6-5.42,5.87-10.84,11.74-16.74,19.3,7.34,5.69,15.49,10.34,24.22,13.96,7.42,3.08,15.54,4.01,23.47,2.68,9.4-1.58,17.72-4.1,28-7.33"/>
        <g>
          <path class="cls-11" d="M50.36,436.03c3-8.09,1.47-17.04-4.04-24.75-1.16-5.76-.69-11.83,1.33-17.35.96-2.61,2.28-5.35,1.62-8.05-.89-3.67-5.38-5.6-9.04-4.68-3.66.92-6.44,3.97-8.21,7.3-3.21,6.03-3.74,13.44-4.02,21.11-8.1-2.56-20.5-3.95-25.74,2.15-2.78,3.23-2.24,9.43,1.45,13.13-.17,4.83-.35,10.03.48,14.8.83,4.77,2.74,9.47,6.19,12.86,3.93,3.85,9.51,5.64,15.01,6,2.73.18,5.97.04,8.38-1.07"/>
          <path class="cls-14" d="M26.58,409.17c3.7.89,11.15,5.23,7.94,11.28-1.27,2.4-4.09,3.46-6.72,4.13-6.21,1.57-12.7,2-19.06,1.26"/>
          <path class="cls-14" d="M34.45,423.92s.03.06.04.09c2.12,4.54-.09,10.13-4.47,11.91-5.82,2.36-12.2,3.41-18.5,3.03"/>
          <path class="cls-14" d="M34.62,434.73s.03.04.05.06c2.92,3.97.9,9.43-4.03,11.22-3.63,1.32-7.65,1.98-11.65,1.87"/>
          <path class="cls-14" d="M33.7,445.06c5.92,1.56,6,10.39.08,12.42-6.55,2.25-12.22.2-13.35.33"/>
        </g>
      </g>
      <path class="cls-17" d="M153.06,342.38c3.25-4.84,8.65-8.18,14.44-8.93,5.79-.75,11.86,1.1,16.24,4.95"/>
      <path class="cls-17" d="M266.53,338.92c3.49-3.75,8.81-5.71,13.9-5.12,5.09.59,9.82,3.71,12.37,8.15"/>
      <g>
        <circle class="cls-7" cx="172.95" cy="371.91" r="25.02"/>
        <circle class="cls-2" cx="172.95" cy="371.91" r="14.46"/>
        <circle class="cls-7" cx="276.01" cy="371.91" r="25.02"/>
        <circle class="cls-2" cx="276.01" cy="371.91" r="14.46"/>
        <path class="cls-1" d="M250.77,430.23c-2.89.55-6.75-1.73-9.33-2.77-1.9-.77-7.88-4.33-7.57-1.9-1.26-9.86-12-15.78-20.04-8.3-6.09,5.66-13.04,10.32-20.78,13.42-5.86,2.34-10.05,7.85-8.2,14.44.71,2.54,2.54,4.95,4.88,6.61.8.95,1.76,1.84,2.89,2.69,1.43,1.08,3.05,1.97,4.74,2.76,2.52,2.7,4.65,5.7,8.64,7.21,5.84,2.2,12.78,1.98,18.93,1.29,2.64-.3,5.22-.73,7.73-1.3,3.67.36,7.39.41,11.46-.26,4.97-.83,7.57-3.91,8.28-7.56,3.37-1.96,6.64-4.19,9.81-6.7,10.1-7.98-1.24-21.56-11.42-19.62Z"/>
        <g>
          <path class="cls-10" d="M227.53,395.94c1.1-2.06,4.55-7.94,11.51-11.51,8.54-4.39,17.32-3.39,23.33-1.21,12.52,4.54,13.45,7.72,28.48,13.33,2.96,1.11,13.26,4.77,26.97,5.45,10.43.52,20.93,1.05,29.69-5.76,1.91-1.48,6.7-5.21,8.48-11.51,3.05-10.8-5.19-20.54-3.64-21.51,1.36-.85,9.16,5.66,12.42,15.45,3.7,11.09-.18,21.09-1.21,23.63-1.5,3.7-5.08,10.8-17.88,20-16.65,11.96-33.66,16.52-43.93,18.48-15.97,3.05-36.29,6.92-55.75-3.64-5.2-2.82-19.5-10.58-21.51-24.54-1.22-8.45,2.55-15.76,3.03-16.66Z"/>
          <path class="cls-10" d="M167.54,392.76c4.65-2.46,7.38-4.41,13.03-6.06,4.59-1.34,15.26-4.45,26.21.61,2.66,1.23,9.48,4.38,13.18,11.97,4.51,9.26,1.12,18.48.45,20.3-4.72,12.84-18.11,18.36-26.06,21.51-28.62,11.34-64.19,5.79-89.99-12.73-10.2-7.32-23.22-16.67-24.39-32.27-1.21-16.21,13.08-30.59,13.33-30.45.15.08-4.12,5.08-4.39,12.57-.32,8.96,5.28,15.63,5.91,16.36,6.85,7.93,17.32,8.57,25.9,9.09,22.9,1.39,43.13-8.96,46.81-10.91Z"/>
        </g>
        <path class="cls-6" d="M259.03,452.32c-.47-1.72-1.91-2.67-3.52-2.79-4.43-3.46-10.21-5.87-15.81-3.91-4.43,1.55-7.13,5.11-10.18,8.38-2.41-3.67-6.46-6.27-10.78-6.92-4.33-.64-8.19.83-12.15,2.15-1.11.23-2.2.57-3.27.99-.08.02-.16.05-.24.07,0,0,0,.02,0,.02-.31.13-.63.23-.94.37-.8.36-1.33.88-1.64,1.49-4.68.54-4.6,7.98.33,7.78.94-.04,1.87-.12,2.8-.2.46.65,1.12,1.19,2.05,1.51,4.84,1.66,9.94,2.86,15.06,3.33,1.05,1.12,2.4,1.95,3.86,2.43,3.47,1.12,7.43.47,10.81-.66,3.54-1.18,6.98-2.82,10.37-4.39,2.85-1.32,5.63-2.78,8.26-4.49.76-.1,1.51-.21,2.26-.35,2.08-.4,3.26-2.89,2.73-4.81Z"/>
        <path class="cls-14" d="M182.24,445.96c3.69,4.28,9.27,9.6,17.1,13.73,4.37,2.3,23.61,12.61,44.55,3.82,13.63-5.73,19.66-14.34,22.68-19.43"/>
        <path class="cls-14" d="M194.13,456.56c.72-1.8,5.71-6.23,13.31-9.51,1.11-.48,7.7-3.32,13.33-.76,1.12.51,2.99,1.36,4.58,3.26,1.64,1.96,1.59,3.36,2.54,3.56,1.86.39,2.71-4.84,6.82-7.42,3.98-2.51,9.03-1.27,14.24,0,2.68.66,6.66,1.95,11.06,4.7"/>
      </g>
      <path class="cls-5" d="M94.69.08c-2.18,3.33-4.28,6.57-6.42,9.79-2.18,3.29-4.36,6.58-5.68,10.34-2.85,8.08-3.38,16.16.15,24.2,1.88,4.28,5.09,7.38,8.94,9.95,7.26,4.85,14.21,10.08,19.89,16.8,3.28,3.88,5.89,8.12,7.2,13.1,1.35,5.11.71,10.07-1.07,14.92-3.27,8.92-8.68,16.52-14.86,23.63-.14.16-.34.27-.7.54-.11-.55-.2-.93-.25-1.31-.64-4.87-1.15-9.76-1.95-14.6-.9-5.47-3.51-10.2-6.98-14.47-3.78-4.65-7.72-9.18-11.4-13.92-5.39-6.93-9.99-14.35-12.78-22.75-5.82-17.52-2.05-32.76,11.02-45.73,4.14-4.11,8.82-7.52,13.96-10.31.17-.09.34-.19.52-.26.06-.02.14.02.41.08Z"/>
      <path class="cls-5" d="M68.88,132.44c-.26-2.11-.58-4.2-.77-6.3-.67-7.64-3.66-14.2-8.79-19.9-5.13-5.7-9.85-11.74-13.51-18.53-3.48-6.47-5.7-13.28-5.47-20.73.24-7.7,3.4-14.21,8.33-19.94,3.8-4.41,8.28-8.01,13.34-10.88.16-.09.33-.16.74-.36-.19.42-.25.65-.37.84-2.26,3.37-4.61,6.69-6.78,10.13-3.18,5.04-4.71,10.59-4.31,16.57.42,6.23,3.03,11.28,8.33,14.79,4.81,3.19,9.48,6.57,13.6,10.64,2.8,2.76,5.24,5.8,7.02,9.33,2.78,5.52,2.63,11.11.35,16.73-2.67,6.57-6.72,12.25-11.38,17.53-.04.04-.14.04-.34.08Z"/>
    </g>
  </g>
</svg>